<svg version="1.1" id="Layer_1" xmlns="http://www.w3.org/2000/svg" xmlns:xlink="http://www.w3.org/1999/xlink" x="0px" y="0px"
	 width="100%" viewBox="0 0 1000 1000" enable-background="new 0 0 1000 1000" xml:space="preserve">
<path fill="#77B0DE" opacity="1.000000" stroke="none" 
	d="
M1001.000000,175.000015 
	C1001.000000,390.026855 1001.000000,605.053711 1000.658936,820.200500 
	C999.880005,821.330139 999.213257,822.302917 999.043762,823.355835 
	C998.292603,828.020142 997.782166,832.723694 997.007935,837.383667 
	C992.723694,863.172546 983.096863,886.824280 969.095276,908.885315 
	C957.423401,927.275757 943.150635,943.335083 926.320251,956.924866 
	C912.681519,967.937500 897.803528,977.175476 881.576294,984.264221 
	C865.408264,991.327026 848.757141,996.296143 831.381714,999.070679 
	C830.507446,999.210266 829.790344,1000.334351 829.000000,1001.000000 
	C609.973145,1001.000000 390.946259,1001.000000 171.800720,1000.678711 
	C169.853012,999.891663 168.041000,999.340210 166.192368,998.973206 
	C143.053986,994.378784 120.943893,987.071167 100.388756,975.202637 
	C78.009956,962.281128 58.705574,945.874023 42.624950,925.693481 
	C22.478884,900.411011 9.181070,871.912476 2.836898,840.181396 
	C2.673565,839.364441 1.631999,838.723206 1.000003,838.000000 
	C1.000000,611.639771 1.000000,385.279602 1.322446,158.758667 
	C2.025094,157.883621 2.603962,157.209351 2.757107,156.449295 
	C12.156236,109.801590 35.274761,71.314308 71.653503,40.758186 
	C92.336105,23.385946 115.745201,10.993052 141.509445,2.965677 
	C142.452255,2.671926 143.174805,1.671233 144.000000,1.000000 
	C381.026855,1.000000 618.053711,1.000000 855.200439,1.295725 
	C855.795837,2.032696 856.196106,2.674347 856.758118,2.885410 
	C867.180969,6.799501 877.934570,9.994951 887.990234,14.687808 
	C904.239014,22.270905 919.115356,32.320141 932.536682,44.194092 
	C951.721985,61.167469 967.395752,81.120522 978.900513,104.026741 
	C989.735413,125.599327 997.110107,148.344131 999.079895,172.614288 
	C999.148254,173.455933 1000.334656,174.206833 1001.000000,175.000015 
M260.620941,752.673584 
	C260.717224,741.700134 260.658112,730.721802 260.996338,719.755859 
	C261.110809,716.045898 260.080292,714.893311 256.316711,714.808594 
	C242.181778,714.490479 228.019211,714.274414 213.932343,713.179626 
	C184.431442,710.886780 158.131180,700.789978 137.006180,679.354858 
	C108.730583,650.664246 92.909729,616.188049 91.026642,575.912170 
	C89.551758,544.367004 97.401329,515.200256 116.549660,489.542877 
	C133.922348,466.264771 157.677979,452.071503 184.237442,441.882385 
	C204.095169,434.264343 224.816986,430.067444 245.760651,426.938232 
	C250.269714,426.264526 252.217285,424.430389 253.023438,419.912659 
	C254.893112,409.435120 256.922302,398.948608 259.646942,388.667175 
	C277.262573,322.194916 315.772827,272.269653 377.980286,241.910263 
	C415.998138,223.356262 456.446655,216.191940 498.732910,218.840942 
	C529.930176,220.795273 559.417480,228.947800 587.489563,242.295746 
	C618.363159,256.975739 644.461548,277.916382 665.686707,304.684570 
	C673.081299,314.010162 679.379028,324.205444 686.805054,334.907745 
	C651.336121,350.139160 619.899719,369.371338 592.506104,395.418701 
	C594.016113,397.270233 595.118835,398.704346 596.305908,400.064880 
	C606.265869,411.480469 616.400696,422.749084 626.121887,434.364136 
	C629.338440,438.207275 631.393188,438.394135 635.298767,435.179321 
	C653.206177,420.439056 672.100952,407.006592 692.696228,396.287109 
	C715.389038,384.475830 739.649963,377.674957 765.208679,375.494019 
	C790.950195,373.297485 815.768372,376.615570 839.203247,387.777893 
	C871.383179,403.105560 893.208008,428.405426 907.354187,460.570679 
	C925.191895,501.129333 928.698364,543.339539 920.514832,586.662354 
	C915.135071,615.142151 903.623474,640.519836 882.643555,661.152039 
	C865.128906,678.376343 844.244690,690.227905 822.007202,700.003296 
	C801.838379,708.869324 780.809509,714.215332 758.715393,714.790405 
	C754.666382,714.895813 754.875793,717.066162 754.815796,719.990662 
	C754.485474,736.092712 754.157532,752.199890 753.383667,768.283936 
	C753.187622,772.359924 754.850952,772.678833 757.932434,772.672852 
	C775.337952,772.639038 792.488831,770.500549 809.327637,766.174866 
	C838.033752,758.800537 864.232422,745.684082 888.959778,729.743225 
	C923.573792,707.428711 950.014709,677.915588 965.177917,639.134094 
	C975.642090,612.371033 981.975037,584.811523 981.066650,555.817627 
	C980.607666,541.166626 982.004944,526.371643 980.494507,511.856934 
	C977.172791,479.936462 968.011230,449.542816 952.611389,421.225830 
	C937.168274,392.829346 916.718079,368.745697 889.946960,350.432343 
	C847.659729,321.504730 800.639587,312.820007 750.437866,319.032135 
	C745.228943,319.676697 742.774780,318.428192 740.452454,313.921112 
	C724.240234,282.456940 702.536621,255.184021 675.865784,232.017944 
	C626.798462,189.398499 569.371338,166.213928 504.827728,161.419312 
	C468.595642,158.727814 432.594330,161.881973 397.565491,172.507782 
	C328.613464,193.424042 274.342926,233.677414 236.438904,295.300629 
	C221.849564,319.019501 211.520004,344.607330 204.339691,371.467377 
	C203.450974,374.791870 201.972290,376.480408 198.526093,377.176086 
	C193.313461,378.228363 188.183014,379.750824 183.084106,381.293182 
	C147.205521,392.146118 114.261047,408.358582 87.393112,435.117096 
	C43.609226,478.722565 29.020113,532.587036 34.566479,592.505615 
	C38.642662,636.541504 56.708061,675.112305 85.352005,708.789612 
	C103.330124,729.926819 124.286041,747.047241 150.221497,757.464050 
	C185.142349,771.489685 221.923996,772.546814 258.821167,772.649780 
	C261.848419,772.658203 262.480591,771.096375 262.189545,768.502319 
	C261.633331,763.544739 261.159210,758.577942 260.620941,752.673584 
M555.118347,582.336060 
	C551.095459,568.941223 546.927734,555.587158 543.143494,542.125244 
	C542.095093,538.395813 540.442383,537.063599 536.579773,537.117004 
	C522.419312,537.312622 508.254425,537.193665 494.091187,537.193237 
	C490.839355,537.193115 487.587524,537.193237 483.668060,537.193237 
	C484.382141,539.862915 484.809692,541.937012 485.488251,543.925537 
	C493.341583,566.939331 501.261902,589.930359 509.108185,612.946594 
	C526.736511,664.657471 544.366089,716.368042 561.868530,768.121582 
	C563.037598,771.578491 564.739197,772.757690 568.315796,772.721619 
	C584.143677,772.562195 599.974976,772.752930 615.803284,772.615601 
	C625.076721,772.535156 623.660034,774.651733 627.159973,764.516296 
	C651.895996,692.882935 676.561523,621.225220 701.239868,549.571960 
	C702.573975,545.698303 703.821228,541.794800 705.209290,537.601929 
	C703.485229,537.257812 702.543762,536.903931 701.603455,536.906921 
	C685.944702,536.955933 670.282166,537.274841 654.629822,537.000671 
	C649.729309,536.914795 648.132202,538.892944 646.885437,543.156677 
	C638.892822,570.490967 630.609192,597.739990 622.501343,625.040894 
	C613.175110,656.444214 603.931824,687.872131 594.939209,718.318481 
	C593.740417,713.516541 592.448303,707.360046 590.663513,701.349915 
	C578.953308,661.917114 567.136597,622.515869 555.118347,582.336060 
M402.957947,697.227600 
	C400.794342,708.490723 397.144348,719.358765 386.650177,725.263367 
	C369.914398,734.679993 353.963989,729.475159 338.362915,719.828125 
	C338.210571,722.055908 338.028503,723.498840 338.026184,724.942017 
	C338.004578,738.441772 338.163513,751.944275 337.921265,765.439697 
	C337.850311,769.392761 339.439667,770.973816 342.943848,772.086853 
	C355.331177,776.021606 367.958069,777.406677 380.894226,776.506531 
	C412.759857,774.289062 436.808197,760.552795 449.660004,730.130371 
	C456.261993,714.502258 458.434967,697.969055 458.560974,681.291687 
	C458.911011,634.961792 458.646210,588.627441 458.751740,542.295166 
	C458.760651,538.393005 457.574463,537.064331 453.607452,537.119080 
	C439.443726,537.314575 425.269989,537.423462 411.112244,537.072021 
	C406.004883,536.945190 404.679169,538.431335 404.703033,543.498657 
	C404.904755,586.330322 404.907684,629.163696 404.739197,671.995667 
	C404.707245,680.120850 403.652496,688.242004 402.957947,697.227600 
z"/>
<path fill="#FEFFFF" opacity="1.000000" stroke="none" 
	d="
M260.635986,753.144287 
	C261.159210,758.577942 261.633331,763.544739 262.189545,768.502319 
	C262.480591,771.096375 261.848419,772.658203 258.821167,772.649780 
	C221.923996,772.546814 185.142349,771.489685 150.221497,757.464050 
	C124.286041,747.047241 103.330124,729.926819 85.352005,708.789612 
	C56.708061,675.112305 38.642662,636.541504 34.566479,592.505615 
	C29.020113,532.587036 43.609226,478.722565 87.393112,435.117096 
	C114.261047,408.358582 147.205521,392.146118 183.084106,381.293182 
	C188.183014,379.750824 193.313461,378.228363 198.526093,377.176086 
	C201.972290,376.480408 203.450974,374.791870 204.339691,371.467377 
	C211.520004,344.607330 221.849564,319.019501 236.438904,295.300629 
	C274.342926,233.677414 328.613464,193.424042 397.565491,172.507782 
	C432.594330,161.881973 468.595642,158.727814 504.827728,161.419312 
	C569.371338,166.213928 626.798462,189.398499 675.865784,232.017944 
	C702.536621,255.184021 724.240234,282.456940 740.452454,313.921112 
	C742.774780,318.428192 745.228943,319.676697 750.437866,319.032135 
	C800.639587,312.820007 847.659729,321.504730 889.946960,350.432343 
	C916.718079,368.745697 937.168274,392.829346 952.611389,421.225830 
	C968.011230,449.542816 977.172791,479.936462 980.494507,511.856934 
	C982.004944,526.371643 980.607666,541.166626 981.066650,555.817627 
	C981.975037,584.811523 975.642090,612.371033 965.177917,639.134094 
	C950.014709,677.915588 923.573792,707.428711 888.959778,729.743225 
	C864.232422,745.684082 838.033752,758.800537 809.327637,766.174866 
	C792.488831,770.500549 775.337952,772.639038 757.932434,772.672852 
	C754.850952,772.678833 753.187622,772.359924 753.383667,768.283936 
	C754.157532,752.199890 754.485474,736.092712 754.815796,719.990662 
	C754.875793,717.066162 754.666382,714.895813 758.715393,714.790405 
	C780.809509,714.215332 801.838379,708.869324 822.007202,700.003296 
	C844.244690,690.227905 865.128906,678.376343 882.643555,661.152039 
	C903.623474,640.519836 915.135071,615.142151 920.514832,586.662354 
	C928.698364,543.339539 925.191895,501.129333 907.354187,460.570679 
	C893.208008,428.405426 871.383179,403.105560 839.203247,387.777893 
	C815.768372,376.615570 790.950195,373.297485 765.208679,375.494019 
	C739.649963,377.674957 715.389038,384.475830 692.696228,396.287109 
	C672.100952,407.006592 653.206177,420.439056 635.298767,435.179321 
	C631.393188,438.394135 629.338440,438.207275 626.121887,434.364136 
	C616.400696,422.749084 606.265869,411.480469 596.305908,400.064880 
	C595.118835,398.704346 594.016113,397.270233 592.506104,395.418701 
	C619.899719,369.371338 651.336121,350.139160 686.805054,334.907745 
	C679.379028,324.205444 673.081299,314.010162 665.686707,304.684570 
	C644.461548,277.916382 618.363159,256.975739 587.489563,242.295746 
	C559.417480,228.947800 529.930176,220.795273 498.732910,218.840942 
	C456.446655,216.191940 415.998138,223.356262 377.980286,241.910263 
	C315.772827,272.269653 277.262573,322.194916 259.646942,388.667175 
	C256.922302,398.948608 254.893112,409.435120 253.023438,419.912659 
	C252.217285,424.430389 250.269714,426.264526 245.760651,426.938232 
	C224.816986,430.067444 204.095169,434.264343 184.237442,441.882385 
	C157.677979,452.071503 133.922348,466.264771 116.549660,489.542877 
	C97.401329,515.200256 89.551758,544.367004 91.026642,575.912170 
	C92.909729,616.188049 108.730583,650.664246 137.006180,679.354858 
	C158.131180,700.789978 184.431442,710.886780 213.932343,713.179626 
	C228.019211,714.274414 242.181778,714.490479 256.316711,714.808594 
	C260.080292,714.893311 261.110809,716.045898 260.996338,719.755859 
	C260.658112,730.721802 260.717224,741.700134 260.635986,753.144287 
z"/>
<path fill="#FEFEFF" opacity="1.000000" stroke="none" 
	d="
M555.236572,582.720215 
	C567.136597,622.515869 578.953308,661.917114 590.663513,701.349915 
	C592.448303,707.360046 593.740417,713.516541 594.939209,718.318481 
	C603.931824,687.872131 613.175110,656.444214 622.501343,625.040894 
	C630.609192,597.739990 638.892822,570.490967 646.885437,543.156677 
	C648.132202,538.892944 649.729309,536.914795 654.629822,537.000671 
	C670.282166,537.274841 685.944702,536.955933 701.603455,536.906921 
	C702.543762,536.903931 703.485229,537.257812 705.209290,537.601929 
	C703.821228,541.794800 702.573975,545.698303 701.239868,549.571960 
	C676.561523,621.225220 651.895996,692.882935 627.159973,764.516296 
	C623.660034,774.651733 625.076721,772.535156 615.803284,772.615601 
	C599.974976,772.752930 584.143677,772.562195 568.315796,772.721619 
	C564.739197,772.757690 563.037598,771.578491 561.868530,768.121582 
	C544.366089,716.368042 526.736511,664.657471 509.108185,612.946594 
	C501.261902,589.930359 493.341583,566.939331 485.488251,543.925537 
	C484.809692,541.937012 484.382141,539.862915 483.668060,537.193237 
	C487.587524,537.193237 490.839355,537.193115 494.091187,537.193237 
	C508.254425,537.193665 522.419312,537.312622 536.579773,537.117004 
	C540.442383,537.063599 542.095093,538.395813 543.143494,542.125244 
	C546.927734,555.587158 551.095459,568.941223 555.236572,582.720215 
z"/>
<path fill="#FEFEFF" opacity="1.000000" stroke="none" 
	d="
M403.013794,696.796326 
	C403.652496,688.242004 404.707245,680.120850 404.739197,671.995667 
	C404.907684,629.163696 404.904755,586.330322 404.703033,543.498657 
	C404.679169,538.431335 406.004883,536.945190 411.112244,537.072021 
	C425.269989,537.423462 439.443726,537.314575 453.607452,537.119080 
	C457.574463,537.064331 458.760651,538.393005 458.751740,542.295166 
	C458.646210,588.627441 458.911011,634.961792 458.560974,681.291687 
	C458.434967,697.969055 456.261993,714.502258 449.660004,730.130371 
	C436.808197,760.552795 412.759857,774.289062 380.894226,776.506531 
	C367.958069,777.406677 355.331177,776.021606 342.943848,772.086853 
	C339.439667,770.973816 337.850311,769.392761 337.921265,765.439697 
	C338.163513,751.944275 338.004578,738.441772 338.026184,724.942017 
	C338.028503,723.498840 338.210571,722.055908 338.362915,719.828125 
	C353.963989,729.475159 369.914398,734.679993 386.650177,725.263367 
	C397.144348,719.358765 400.794342,708.490723 403.013794,696.796326 
z"/>
</svg>
